<mxfile host="app.diagrams.net" modified="2022-11-21T07:34:34.383Z" agent="5.0 (Windows NT 10.0; Win64; x64) AppleWebKit/537.36 (KHTML, like Gecko) Chrome/107.0.0.0 Safari/537.36 Edg/107.0.1418.52" etag="7hFxi93PNRWXCEmb87QU" version="20.4.1" type="github">
  <diagram id="prtHgNgQTEPvFCAcTncT" name="Page-1">
    <mxGraphModel dx="4517" dy="1942" grid="1" gridSize="10" guides="1" tooltips="1" connect="1" arrows="1" fold="1" page="1" pageScale="1" pageWidth="827" pageHeight="1169" math="0" shadow="0">
      <root>
        <mxCell id="0" />
        <mxCell id="1" parent="0" />
        <mxCell id="fBtZuvhB1-8Jw_SssKyv-33" style="edgeStyle=orthogonalEdgeStyle;rounded=0;orthogonalLoop=1;jettySize=auto;html=1;entryX=0.5;entryY=0;entryDx=0;entryDy=0;strokeColor=default;" edge="1" parent="1" source="fBtZuvhB1-8Jw_SssKyv-1" target="fBtZuvhB1-8Jw_SssKyv-32">
          <mxGeometry relative="1" as="geometry" />
        </mxCell>
        <mxCell id="fBtZuvhB1-8Jw_SssKyv-1" value="进入场景" style="rounded=0;whiteSpace=wrap;html=1;" vertex="1" parent="1">
          <mxGeometry x="880" y="-40" width="120" height="60" as="geometry" />
        </mxCell>
        <mxCell id="fBtZuvhB1-8Jw_SssKyv-14" value="" style="edgeStyle=orthogonalEdgeStyle;rounded=0;orthogonalLoop=1;jettySize=auto;html=1;" edge="1" parent="1" source="fBtZuvhB1-8Jw_SssKyv-9" target="fBtZuvhB1-8Jw_SssKyv-13">
          <mxGeometry relative="1" as="geometry" />
        </mxCell>
        <mxCell id="fBtZuvhB1-8Jw_SssKyv-15" value="False" style="edgeLabel;html=1;align=center;verticalAlign=middle;resizable=0;points=[];" vertex="1" connectable="0" parent="fBtZuvhB1-8Jw_SssKyv-14">
          <mxGeometry x="-0.1514" y="-1" relative="1" as="geometry">
            <mxPoint as="offset" />
          </mxGeometry>
        </mxCell>
        <mxCell id="fBtZuvhB1-8Jw_SssKyv-17" value="" style="edgeStyle=orthogonalEdgeStyle;rounded=0;orthogonalLoop=1;jettySize=auto;html=1;entryX=0.5;entryY=0;entryDx=0;entryDy=0;" edge="1" parent="1" source="fBtZuvhB1-8Jw_SssKyv-9" target="fBtZuvhB1-8Jw_SssKyv-20">
          <mxGeometry relative="1" as="geometry">
            <mxPoint x="270" y="225" as="targetPoint" />
          </mxGeometry>
        </mxCell>
        <mxCell id="fBtZuvhB1-8Jw_SssKyv-18" value="True" style="edgeLabel;html=1;align=center;verticalAlign=middle;resizable=0;points=[];" vertex="1" connectable="0" parent="fBtZuvhB1-8Jw_SssKyv-17">
          <mxGeometry x="-0.2143" y="-1" relative="1" as="geometry">
            <mxPoint as="offset" />
          </mxGeometry>
        </mxCell>
        <mxCell id="fBtZuvhB1-8Jw_SssKyv-9" value="判断是否检测到用户&lt;br&gt;isFindUser" style="rhombus;whiteSpace=wrap;html=1;" vertex="1" parent="1">
          <mxGeometry x="370" y="190" width="160" height="70" as="geometry" />
        </mxCell>
        <mxCell id="fBtZuvhB1-8Jw_SssKyv-13" value="Idle动画" style="ellipse;whiteSpace=wrap;html=1;" vertex="1" parent="1">
          <mxGeometry x="630" y="195" width="120" height="60" as="geometry" />
        </mxCell>
        <mxCell id="fBtZuvhB1-8Jw_SssKyv-22" style="edgeStyle=orthogonalEdgeStyle;rounded=0;orthogonalLoop=1;jettySize=auto;html=1;exitX=1;exitY=0.5;exitDx=0;exitDy=0;entryX=0.5;entryY=0;entryDx=0;entryDy=0;" edge="1" parent="1" source="fBtZuvhB1-8Jw_SssKyv-20" target="fBtZuvhB1-8Jw_SssKyv-25">
          <mxGeometry relative="1" as="geometry">
            <mxPoint x="425" y="370" as="targetPoint" />
          </mxGeometry>
        </mxCell>
        <mxCell id="fBtZuvhB1-8Jw_SssKyv-24" value="False" style="edgeLabel;html=1;align=center;verticalAlign=middle;resizable=0;points=[];" vertex="1" connectable="0" parent="fBtZuvhB1-8Jw_SssKyv-22">
          <mxGeometry x="-0.1325" relative="1" as="geometry">
            <mxPoint x="-24" as="offset" />
          </mxGeometry>
        </mxCell>
        <mxCell id="fBtZuvhB1-8Jw_SssKyv-44" value="" style="edgeStyle=orthogonalEdgeStyle;rounded=0;orthogonalLoop=1;jettySize=auto;html=1;strokeColor=default;fontSize=11;" edge="1" parent="1" source="fBtZuvhB1-8Jw_SssKyv-20" target="fBtZuvhB1-8Jw_SssKyv-43">
          <mxGeometry relative="1" as="geometry" />
        </mxCell>
        <mxCell id="fBtZuvhB1-8Jw_SssKyv-45" value="True" style="edgeLabel;html=1;align=center;verticalAlign=middle;resizable=0;points=[];fontSize=11;" vertex="1" connectable="0" parent="fBtZuvhB1-8Jw_SssKyv-44">
          <mxGeometry x="-0.1316" y="3" relative="1" as="geometry">
            <mxPoint as="offset" />
          </mxGeometry>
        </mxCell>
        <mxCell id="fBtZuvhB1-8Jw_SssKyv-20" value="是否完成第一次&lt;br&gt;交互&lt;font style=&quot;font-size: 12px;&quot;&gt;isFinishFirstInteract&lt;/font&gt;" style="rhombus;whiteSpace=wrap;html=1;" vertex="1" parent="1">
          <mxGeometry x="130" y="290" width="190" height="70" as="geometry" />
        </mxCell>
        <mxCell id="fBtZuvhB1-8Jw_SssKyv-41" style="edgeStyle=orthogonalEdgeStyle;shape=link;rounded=0;orthogonalLoop=1;jettySize=auto;html=1;exitX=0.5;exitY=1;exitDx=0;exitDy=0;entryX=0.5;entryY=0;entryDx=0;entryDy=0;strokeColor=default;fontSize=12;" edge="1" parent="1" source="fBtZuvhB1-8Jw_SssKyv-25" target="fBtZuvhB1-8Jw_SssKyv-40">
          <mxGeometry relative="1" as="geometry" />
        </mxCell>
        <mxCell id="fBtZuvhB1-8Jw_SssKyv-25" value="进入第一次交互模式" style="rounded=0;whiteSpace=wrap;html=1;" vertex="1" parent="1">
          <mxGeometry x="360" y="420" width="120" height="60" as="geometry" />
        </mxCell>
        <mxCell id="fBtZuvhB1-8Jw_SssKyv-27" value="" style="endArrow=none;html=1;strokeWidth=2;rounded=1;exitX=1;exitY=0.25;exitDx=0;exitDy=0;strokeColor=default;edgeStyle=orthogonalEdgeStyle;dashed=1;" edge="1" parent="1" source="fBtZuvhB1-8Jw_SssKyv-40">
          <mxGeometry width="50" height="50" relative="1" as="geometry">
            <mxPoint x="420" y="330" as="sourcePoint" />
            <mxPoint x="570" y="230" as="targetPoint" />
          </mxGeometry>
        </mxCell>
        <mxCell id="fBtZuvhB1-8Jw_SssKyv-28" value="如果长时间没有检测&lt;br&gt;到用户或用户丢失" style="edgeLabel;html=1;align=center;verticalAlign=middle;resizable=0;points=[];" vertex="1" connectable="0" parent="fBtZuvhB1-8Jw_SssKyv-27">
          <mxGeometry x="-0.4028" y="1" relative="1" as="geometry">
            <mxPoint y="-110" as="offset" />
          </mxGeometry>
        </mxCell>
        <mxCell id="fBtZuvhB1-8Jw_SssKyv-29" value="虚线" style="text;html=1;align=center;verticalAlign=middle;resizable=0;points=[];autosize=1;strokeColor=none;fillColor=none;" vertex="1" parent="1">
          <mxGeometry x="320" y="-85" width="50" height="30" as="geometry" />
        </mxCell>
        <mxCell id="fBtZuvhB1-8Jw_SssKyv-30" value="" style="endArrow=none;dashed=1;html=1;dashPattern=1 3;strokeWidth=2;rounded=1;strokeColor=default;entryX=1.1;entryY=0.5;entryDx=0;entryDy=0;entryPerimeter=0;" edge="1" parent="1" target="fBtZuvhB1-8Jw_SssKyv-29">
          <mxGeometry width="50" height="50" relative="1" as="geometry">
            <mxPoint x="445" y="-70" as="sourcePoint" />
            <mxPoint x="275" y="90" as="targetPoint" />
          </mxGeometry>
        </mxCell>
        <mxCell id="fBtZuvhB1-8Jw_SssKyv-31" value="代表每帧都会&lt;br&gt;进行检测" style="text;html=1;align=center;verticalAlign=middle;resizable=0;points=[];autosize=1;strokeColor=none;fillColor=none;" vertex="1" parent="1">
          <mxGeometry x="445" y="-90" width="100" height="40" as="geometry" />
        </mxCell>
        <mxCell id="fBtZuvhB1-8Jw_SssKyv-35" style="edgeStyle=orthogonalEdgeStyle;rounded=0;orthogonalLoop=1;jettySize=auto;html=1;exitX=0;exitY=0.5;exitDx=0;exitDy=0;entryX=0.5;entryY=0;entryDx=0;entryDy=0;strokeColor=default;" edge="1" parent="1" source="fBtZuvhB1-8Jw_SssKyv-32" target="fBtZuvhB1-8Jw_SssKyv-9">
          <mxGeometry relative="1" as="geometry">
            <Array as="points">
              <mxPoint x="450" y="85" />
            </Array>
          </mxGeometry>
        </mxCell>
        <mxCell id="fBtZuvhB1-8Jw_SssKyv-36" value="True" style="edgeLabel;html=1;align=center;verticalAlign=middle;resizable=0;points=[];" vertex="1" connectable="0" parent="fBtZuvhB1-8Jw_SssKyv-35">
          <mxGeometry x="-0.4437" y="1" relative="1" as="geometry">
            <mxPoint as="offset" />
          </mxGeometry>
        </mxCell>
        <mxCell id="fBtZuvhB1-8Jw_SssKyv-57" style="edgeStyle=orthogonalEdgeStyle;rounded=0;orthogonalLoop=1;jettySize=auto;html=1;exitX=1;exitY=0.5;exitDx=0;exitDy=0;strokeColor=default;strokeWidth=1;fontSize=11;" edge="1" parent="1" source="fBtZuvhB1-8Jw_SssKyv-32">
          <mxGeometry relative="1" as="geometry">
            <mxPoint x="1010" y="190" as="targetPoint" />
          </mxGeometry>
        </mxCell>
        <mxCell id="fBtZuvhB1-8Jw_SssKyv-58" value="False" style="edgeLabel;html=1;align=center;verticalAlign=middle;resizable=0;points=[];fontSize=11;" vertex="1" connectable="0" parent="fBtZuvhB1-8Jw_SssKyv-57">
          <mxGeometry x="-0.2423" relative="1" as="geometry">
            <mxPoint as="offset" />
          </mxGeometry>
        </mxCell>
        <mxCell id="fBtZuvhB1-8Jw_SssKyv-32" value="是否处于交互状态&lt;br&gt;&lt;span style=&quot;font-size: 5px; background-color: rgb(255, 255, 255);&quot;&gt;isInteractiveMode&lt;/span&gt;" style="rhombus;whiteSpace=wrap;html=1;" vertex="1" parent="1">
          <mxGeometry x="640" y="50" width="160" height="70" as="geometry" />
        </mxCell>
        <mxCell id="fBtZuvhB1-8Jw_SssKyv-53" style="edgeStyle=orthogonalEdgeStyle;rounded=0;orthogonalLoop=1;jettySize=auto;html=1;exitX=1;exitY=0.75;exitDx=0;exitDy=0;entryX=0;entryY=0.5;entryDx=0;entryDy=0;strokeColor=default;fontSize=11;" edge="1" parent="1" source="fBtZuvhB1-8Jw_SssKyv-40" target="fBtZuvhB1-8Jw_SssKyv-46">
          <mxGeometry relative="1" as="geometry" />
        </mxCell>
        <mxCell id="fBtZuvhB1-8Jw_SssKyv-55" style="edgeStyle=orthogonalEdgeStyle;rounded=0;orthogonalLoop=1;jettySize=auto;html=1;exitX=0;exitY=0.5;exitDx=0;exitDy=0;dashed=1;strokeColor=default;fontSize=11;strokeWidth=2;entryX=0.5;entryY=0;entryDx=0;entryDy=0;" edge="1" parent="1" source="fBtZuvhB1-8Jw_SssKyv-40" target="fBtZuvhB1-8Jw_SssKyv-43">
          <mxGeometry relative="1" as="geometry">
            <mxPoint x="-60" y="330" as="targetPoint" />
            <Array as="points">
              <mxPoint x="110" y="610" />
              <mxPoint x="110" y="330" />
              <mxPoint x="-575" y="330" />
            </Array>
          </mxGeometry>
        </mxCell>
        <mxCell id="fBtZuvhB1-8Jw_SssKyv-56" value="animNum==id" style="edgeLabel;html=1;align=center;verticalAlign=middle;resizable=0;points=[];fontSize=11;" vertex="1" connectable="0" parent="fBtZuvhB1-8Jw_SssKyv-55">
          <mxGeometry x="-0.6116" y="-1" relative="1" as="geometry">
            <mxPoint x="-15" y="-109" as="offset" />
          </mxGeometry>
        </mxCell>
        <mxCell id="fBtZuvhB1-8Jw_SssKyv-40" value="交互模式的逻辑" style="swimlane;horizontal=0;fontSize=12;" vertex="1" parent="1">
          <mxGeometry x="315" y="510" width="215" height="200" as="geometry" />
        </mxCell>
        <mxCell id="fBtZuvhB1-8Jw_SssKyv-48" value="进入第一次交互，触发事件交给&lt;br&gt;协程完成，每帧进行是否跳出逻&lt;br&gt;辑的判断。" style="text;html=1;align=center;verticalAlign=middle;resizable=0;points=[];autosize=1;strokeColor=none;fillColor=none;fontSize=11;" vertex="1" parent="fBtZuvhB1-8Jw_SssKyv-40">
          <mxGeometry x="25" y="65" width="190" height="60" as="geometry" />
        </mxCell>
        <mxCell id="fBtZuvhB1-8Jw_SssKyv-46" value="协程：动画、UI、&lt;br&gt;语音...通过变量initThisIT控制&lt;br&gt;只触发一次。" style="shape=process;whiteSpace=wrap;html=1;backgroundOutline=1;fontSize=11;size=0.08333333333333333;" vertex="1" parent="1">
          <mxGeometry x="590" y="630" width="120" height="60" as="geometry" />
        </mxCell>
        <mxCell id="fBtZuvhB1-8Jw_SssKyv-59" value="Horizontal Container" style="swimlane;horizontal=0;fontSize=11;" vertex="1" parent="1">
          <mxGeometry x="-2560" y="1880" width="1455" height="800" as="geometry" />
        </mxCell>
        <mxCell id="fBtZuvhB1-8Jw_SssKyv-62" value="" style="edgeStyle=orthogonalEdgeStyle;rounded=0;orthogonalLoop=1;jettySize=auto;html=1;strokeColor=default;strokeWidth=1;fontSize=11;" edge="1" parent="1" source="fBtZuvhB1-8Jw_SssKyv-43" target="fBtZuvhB1-8Jw_SssKyv-61">
          <mxGeometry relative="1" as="geometry" />
        </mxCell>
        <mxCell id="fBtZuvhB1-8Jw_SssKyv-70" style="edgeStyle=orthogonalEdgeStyle;rounded=0;orthogonalLoop=1;jettySize=auto;html=1;entryX=0.5;entryY=0;entryDx=0;entryDy=0;strokeColor=default;strokeWidth=1;fontSize=11;" edge="1" parent="1" source="fBtZuvhB1-8Jw_SssKyv-43" target="fBtZuvhB1-8Jw_SssKyv-68">
          <mxGeometry relative="1" as="geometry" />
        </mxCell>
        <mxCell id="fBtZuvhB1-8Jw_SssKyv-72" value="False" style="edgeLabel;html=1;align=center;verticalAlign=middle;resizable=0;points=[];fontSize=11;" vertex="1" connectable="0" parent="fBtZuvhB1-8Jw_SssKyv-70">
          <mxGeometry x="-0.6978" y="1" relative="1" as="geometry">
            <mxPoint x="16" y="1" as="offset" />
          </mxGeometry>
        </mxCell>
        <mxCell id="fBtZuvhB1-8Jw_SssKyv-43" value="是否为第一次进入&lt;br&gt;thisAnimName==null" style="rhombus;whiteSpace=wrap;html=1;" vertex="1" parent="1">
          <mxGeometry x="-680" y="430" width="190" height="70" as="geometry" />
        </mxCell>
        <mxCell id="fBtZuvhB1-8Jw_SssKyv-60" style="edgeStyle=orthogonalEdgeStyle;rounded=0;orthogonalLoop=1;jettySize=auto;html=1;strokeColor=default;strokeWidth=1;fontSize=11;entryX=0.5;entryY=0;entryDx=0;entryDy=0;" edge="1" parent="1" source="fBtZuvhB1-8Jw_SssKyv-43" target="fBtZuvhB1-8Jw_SssKyv-66">
          <mxGeometry relative="1" as="geometry">
            <mxPoint x="-840" y="720" as="targetPoint" />
          </mxGeometry>
        </mxCell>
        <mxCell id="fBtZuvhB1-8Jw_SssKyv-65" value="True" style="edgeLabel;html=1;align=center;verticalAlign=middle;resizable=0;points=[];fontSize=11;" vertex="1" connectable="0" parent="fBtZuvhB1-8Jw_SssKyv-60">
          <mxGeometry x="-0.5383" y="2" relative="1" as="geometry">
            <mxPoint as="offset" />
          </mxGeometry>
        </mxCell>
        <mxCell id="fBtZuvhB1-8Jw_SssKyv-74" value="isExit==False" style="edgeLabel;html=1;align=center;verticalAlign=middle;resizable=0;points=[];fontSize=11;" vertex="1" connectable="0" parent="fBtZuvhB1-8Jw_SssKyv-60">
          <mxGeometry x="0.0793" y="-2" relative="1" as="geometry">
            <mxPoint y="-18" as="offset" />
          </mxGeometry>
        </mxCell>
        <mxCell id="fBtZuvhB1-8Jw_SssKyv-63" style="edgeStyle=orthogonalEdgeStyle;rounded=0;orthogonalLoop=1;jettySize=auto;html=1;exitX=0;exitY=0.5;exitDx=0;exitDy=0;strokeColor=default;strokeWidth=1;fontSize=11;entryX=0.5;entryY=0;entryDx=0;entryDy=0;" edge="1" parent="1" source="fBtZuvhB1-8Jw_SssKyv-61" target="fBtZuvhB1-8Jw_SssKyv-66">
          <mxGeometry relative="1" as="geometry">
            <mxPoint x="-830" y="720" as="targetPoint" />
          </mxGeometry>
        </mxCell>
        <mxCell id="fBtZuvhB1-8Jw_SssKyv-64" value="isExit==False" style="edgeLabel;html=1;align=center;verticalAlign=middle;resizable=0;points=[];fontSize=11;" vertex="1" connectable="0" parent="fBtZuvhB1-8Jw_SssKyv-63">
          <mxGeometry x="0.0706" y="1" relative="1" as="geometry">
            <mxPoint x="126" y="-1" as="offset" />
          </mxGeometry>
        </mxCell>
        <mxCell id="fBtZuvhB1-8Jw_SssKyv-61" value="是否退出&lt;br&gt;isExit" style="rhombus;whiteSpace=wrap;html=1;" vertex="1" parent="1">
          <mxGeometry x="-680" y="580" width="190" height="70" as="geometry" />
        </mxCell>
        <mxCell id="fBtZuvhB1-8Jw_SssKyv-66" value="Horizontal Container" style="swimlane;horizontal=0;fontSize=11;" vertex="1" parent="1">
          <mxGeometry x="-1320" y="810" width="560" height="590" as="geometry" />
        </mxCell>
        <mxCell id="fBtZuvhB1-8Jw_SssKyv-88" value="该场景是否有回应动画" style="rhombus;whiteSpace=wrap;html=1;fontSize=11;" vertex="1" parent="fBtZuvhB1-8Jw_SssKyv-66">
          <mxGeometry x="100" y="70" width="95" height="50" as="geometry" />
        </mxCell>
        <mxCell id="fBtZuvhB1-8Jw_SssKyv-90" style="edgeStyle=orthogonalEdgeStyle;rounded=0;orthogonalLoop=1;jettySize=auto;html=1;entryX=0.5;entryY=0;entryDx=0;entryDy=0;strokeColor=default;strokeWidth=1;fontSize=11;" edge="1" parent="fBtZuvhB1-8Jw_SssKyv-66" source="fBtZuvhB1-8Jw_SssKyv-89" target="fBtZuvhB1-8Jw_SssKyv-88">
          <mxGeometry relative="1" as="geometry" />
        </mxCell>
        <mxCell id="fBtZuvhB1-8Jw_SssKyv-91" value="True" style="edgeLabel;html=1;align=center;verticalAlign=middle;resizable=0;points=[];fontSize=11;" vertex="1" connectable="0" parent="fBtZuvhB1-8Jw_SssKyv-90">
          <mxGeometry x="-0.1461" y="-2" relative="1" as="geometry">
            <mxPoint as="offset" />
          </mxGeometry>
        </mxCell>
        <mxCell id="fBtZuvhB1-8Jw_SssKyv-89" value="是否完成交互" style="rhombus;whiteSpace=wrap;html=1;fontSize=11;" vertex="1" parent="fBtZuvhB1-8Jw_SssKyv-66">
          <mxGeometry x="200" y="20" width="95" height="50" as="geometry" />
        </mxCell>
        <mxCell id="fBtZuvhB1-8Jw_SssKyv-94" value="播放回应动画&lt;br&gt;退出isExit==True" style="rounded=0;whiteSpace=wrap;html=1;fontSize=11;" vertex="1" parent="fBtZuvhB1-8Jw_SssKyv-66">
          <mxGeometry x="40" y="170" width="120" height="60" as="geometry" />
        </mxCell>
        <mxCell id="fBtZuvhB1-8Jw_SssKyv-92" style="edgeStyle=orthogonalEdgeStyle;rounded=0;orthogonalLoop=1;jettySize=auto;html=1;exitX=0;exitY=0.5;exitDx=0;exitDy=0;strokeColor=default;strokeWidth=1;fontSize=11;entryX=0.5;entryY=0;entryDx=0;entryDy=0;" edge="1" parent="fBtZuvhB1-8Jw_SssKyv-66" source="fBtZuvhB1-8Jw_SssKyv-88" target="fBtZuvhB1-8Jw_SssKyv-94">
          <mxGeometry relative="1" as="geometry">
            <mxPoint x="99.85714285714266" y="150" as="targetPoint" />
            <Array as="points">
              <mxPoint x="100" y="170" />
            </Array>
          </mxGeometry>
        </mxCell>
        <mxCell id="fBtZuvhB1-8Jw_SssKyv-93" value="True" style="edgeLabel;html=1;align=center;verticalAlign=middle;resizable=0;points=[];fontSize=11;" vertex="1" connectable="0" parent="fBtZuvhB1-8Jw_SssKyv-92">
          <mxGeometry x="-0.2208" relative="1" as="geometry">
            <mxPoint as="offset" />
          </mxGeometry>
        </mxCell>
        <mxCell id="fBtZuvhB1-8Jw_SssKyv-76" value="" style="edgeStyle=orthogonalEdgeStyle;rounded=0;orthogonalLoop=1;jettySize=auto;html=1;strokeColor=default;strokeWidth=1;fontSize=11;" edge="1" parent="1" source="fBtZuvhB1-8Jw_SssKyv-68" target="fBtZuvhB1-8Jw_SssKyv-75">
          <mxGeometry relative="1" as="geometry" />
        </mxCell>
        <mxCell id="fBtZuvhB1-8Jw_SssKyv-85" value="True" style="edgeLabel;html=1;align=center;verticalAlign=middle;resizable=0;points=[];fontSize=11;" vertex="1" connectable="0" parent="fBtZuvhB1-8Jw_SssKyv-76">
          <mxGeometry x="-0.2995" y="1" relative="1" as="geometry">
            <mxPoint as="offset" />
          </mxGeometry>
        </mxCell>
        <mxCell id="fBtZuvhB1-8Jw_SssKyv-86" style="edgeStyle=orthogonalEdgeStyle;rounded=0;orthogonalLoop=1;jettySize=auto;html=1;exitX=1;exitY=0.5;exitDx=0;exitDy=0;entryX=0.5;entryY=0;entryDx=0;entryDy=0;strokeColor=default;strokeWidth=1;fontSize=11;" edge="1" parent="1" source="fBtZuvhB1-8Jw_SssKyv-68" target="fBtZuvhB1-8Jw_SssKyv-61">
          <mxGeometry relative="1" as="geometry" />
        </mxCell>
        <mxCell id="fBtZuvhB1-8Jw_SssKyv-87" value="False" style="edgeLabel;html=1;align=center;verticalAlign=middle;resizable=0;points=[];fontSize=11;" vertex="1" connectable="0" parent="fBtZuvhB1-8Jw_SssKyv-86">
          <mxGeometry x="-0.8249" relative="1" as="geometry">
            <mxPoint as="offset" />
          </mxGeometry>
        </mxCell>
        <mxCell id="fBtZuvhB1-8Jw_SssKyv-68" value="isExit?" style="rhombus;whiteSpace=wrap;html=1;fontSize=11;" vertex="1" parent="1">
          <mxGeometry x="-310" y="585" width="153" height="75" as="geometry" />
        </mxCell>
        <mxCell id="fBtZuvhB1-8Jw_SssKyv-78" value="" style="edgeStyle=orthogonalEdgeStyle;rounded=0;orthogonalLoop=1;jettySize=auto;html=1;strokeColor=default;strokeWidth=1;fontSize=11;" edge="1" parent="1" source="fBtZuvhB1-8Jw_SssKyv-75" target="fBtZuvhB1-8Jw_SssKyv-77">
          <mxGeometry relative="1" as="geometry" />
        </mxCell>
        <mxCell id="fBtZuvhB1-8Jw_SssKyv-75" value="idle++" style="whiteSpace=wrap;html=1;fontSize=11;" vertex="1" parent="1">
          <mxGeometry x="-450" y="710" width="120" height="60" as="geometry" />
        </mxCell>
        <mxCell id="fBtZuvhB1-8Jw_SssKyv-80" value="" style="edgeStyle=orthogonalEdgeStyle;rounded=0;orthogonalLoop=1;jettySize=auto;html=1;strokeColor=default;strokeWidth=1;fontSize=11;" edge="1" parent="1" source="fBtZuvhB1-8Jw_SssKyv-77" target="fBtZuvhB1-8Jw_SssKyv-79">
          <mxGeometry relative="1" as="geometry">
            <Array as="points">
              <mxPoint x="-580" y="860" />
            </Array>
          </mxGeometry>
        </mxCell>
        <mxCell id="fBtZuvhB1-8Jw_SssKyv-84" value="True" style="edgeLabel;html=1;align=center;verticalAlign=middle;resizable=0;points=[];fontSize=11;" vertex="1" connectable="0" parent="fBtZuvhB1-8Jw_SssKyv-80">
          <mxGeometry x="0.2744" relative="1" as="geometry">
            <mxPoint as="offset" />
          </mxGeometry>
        </mxCell>
        <mxCell id="fBtZuvhB1-8Jw_SssKyv-82" style="edgeStyle=orthogonalEdgeStyle;rounded=0;orthogonalLoop=1;jettySize=auto;html=1;entryX=0.5;entryY=0;entryDx=0;entryDy=0;strokeColor=default;strokeWidth=1;fontSize=11;" edge="1" parent="1" source="fBtZuvhB1-8Jw_SssKyv-77" target="fBtZuvhB1-8Jw_SssKyv-61">
          <mxGeometry relative="1" as="geometry">
            <Array as="points">
              <mxPoint x="-110" y="860" />
              <mxPoint x="-110" y="560" />
              <mxPoint x="-585" y="560" />
            </Array>
          </mxGeometry>
        </mxCell>
        <mxCell id="fBtZuvhB1-8Jw_SssKyv-83" value="False" style="edgeLabel;html=1;align=center;verticalAlign=middle;resizable=0;points=[];fontSize=11;" vertex="1" connectable="0" parent="fBtZuvhB1-8Jw_SssKyv-82">
          <mxGeometry x="-0.8194" y="1" relative="1" as="geometry">
            <mxPoint x="30" y="1" as="offset" />
          </mxGeometry>
        </mxCell>
        <mxCell id="fBtZuvhB1-8Jw_SssKyv-77" value="&lt;span style=&quot;font-size: 11px;&quot;&gt;idleTime &amp;gt; 500&lt;br&gt;&lt;br&gt;&lt;/span&gt;" style="rhombus;whiteSpace=wrap;html=1;fontSize=11;" vertex="1" parent="1">
          <mxGeometry x="-460" y="830" width="140" height="60" as="geometry" />
        </mxCell>
        <mxCell id="fBtZuvhB1-8Jw_SssKyv-81" style="edgeStyle=orthogonalEdgeStyle;rounded=0;orthogonalLoop=1;jettySize=auto;html=1;exitX=0;exitY=0.5;exitDx=0;exitDy=0;entryX=0.5;entryY=0;entryDx=0;entryDy=0;strokeColor=default;strokeWidth=1;fontSize=11;" edge="1" parent="1" source="fBtZuvhB1-8Jw_SssKyv-79" target="fBtZuvhB1-8Jw_SssKyv-66">
          <mxGeometry relative="1" as="geometry" />
        </mxCell>
        <mxCell id="fBtZuvhB1-8Jw_SssKyv-79" value="选择场景逻辑块&lt;br&gt;更改thisAnimName&lt;br&gt;isExit=False" style="whiteSpace=wrap;html=1;fontSize=11;" vertex="1" parent="1">
          <mxGeometry x="-640" y="690" width="120" height="60" as="geometry" />
        </mxCell>
      </root>
    </mxGraphModel>
  </diagram>
</mxfile>
